<svg fill="rgb(102, 91, 80)" viewBox="0 0 100 230" xmlns="http://www.w3.org/2000/svg">
  <path 
  d="M 5 5 A 1 1 0 0 0 32 -11 A 1 1 0 0 0 5 5 M 5 35 A 1 1 0 0 0 -5 75 
            A 1 1 0 0 0 5 35 M 75 9 A 1 1 0 0 0 105 -10 A 1 1 0 0 0 75 9 M 75 30 A 1 1 0 0 0 120 55 
            A 1 1 0 0 0 75 30 M 5 85 A 1 1 0 0 0 20 95 A 1 1 0 0 0 5 85 M 75 100 A 1 1 0 0 0 140 131 
            A 1 1 0 0 0 75 100 M 27 120 A 1 1 0 0 0 5 135 A 1 1 0 0 0 27 120 M 6 156 A 1 1 0 0 0 47 229 
            A 1 1 0 0 0 6 156 M 75 160 A 1 1 0 0 0 91 179 A 1 1 0 0 0 75 160" />
</svg>