<svg fill="rgba(80, 64, 50, 0.75)" viewBox="0 0 100 230" xmlns="http://www.w3.org/2000/svg">
    <path 
    d="M 13 36 A 1 1 0 0 0 39 17 A 1 1 0 0 0 13 36 M 13 66 A 1 1 0 0 0 31 87 A 1 1 0 0 0 13 66 
            M 97 48 A 1 1 0 0 0 86 26 A 1 1 0 0 0 97 48 M 66 71 A 1 1 0 0 0 94 58 A 1 1 0 0 0 66 71 M 22 109 
            A 1 1 0 0 0 2 103 A 1 1 0 0 0 22 109 M 75 100 A 1 1 0 0 0 76 138 A 1 1 0 0 0 75 100 M 27 120 
            A 1 1 0 0 0 19 134 A 1 1 0 0 0 27 120 M 15 215 A 1 1 0 0 0 40 193 A 1 1 0 0 0 15 215 M 109 198 
            A 1 1 0 0 0 114 222 A 1 1 0 0 0 109 198 M 10 150 A 1 1 0 0 0 23 171 A 1 1 0 0 0 10 150 M 65 165 
            A 1 1 0 0 0 95 176 A 1 1 0 0 0 65 165" />
</svg>