<svg id="beerSvg" class="svg" width="100%" height="70px" viewBox="0 0 25 23" xmlns="http://www.w3.org/2000/svg">
<path class="svgPath" d="M 0 21 Q 0 23 2 23 L 18 23 Q 20 23 20 21 L 0 21 L 0 3 A 1 1 0 0 1 2 2 A 1 1 0 0 1 6 3 
A 1 1 0 0 1 9 1 A 1 1 0 0 1 11 3 A 1 1 0 0 1 16 3 A 1 1 0 0 1 18 3 A 1 1 0 0 1 20 3 L 20 21 M 20 5 L 22 5 
Q 25 5 25 8 L 25 16 Q 25 19 22 19 L 20 19 M 4 6 L 4 19 L 6 19 L 6 6 L 4 6 M 9 6 L 9 19 L 11 19 L 11 6 L 9 6 
M 14 6 L 14 19 L 16 19 L 16 6 L 14 6 M 20 7 L 20 17 L 22 17 A 1 1 0 0 0 23 16 L 23 8 A 1 1 0 0 0 22 7 L 20 7" />
</svg>