<svg id="beerSvg" class="svg" width="100%" height="70px" viewBox="0 0 25 24" xmlns="http://www.w3.org/2000/svg">
<path class="svgPath" d="M 0 21 Q 0 25 3 25 L 17 25 Q 20 25 20 21 L 0 21 L 0 3 A 1 1 0 0 1 2 2 A 1 1 0 0 1 6 3 
A 1 1 0 0 1 9 1 A 1 1 0 0 1 11 3 A 1 1 0 0 1 16 3 A 1 1 0 0 1 18 3 A 1 1 0 0 1 20 3 L 20 21 M 20 6 L 23 6 
L 25 8 L 25 16 L 23 18 L 20 18 M 4 6 L 4 19 L 6 19 L 6 6 L 4 6 M 9 6 L 9 19 L 11 19 L 11 6 L 9 6 M 14 6 L 14 19 
L 16 19 L 16 6 L 14 6 M 21 7 L 21 17 L 23 17 L 24 16 L 24 8 L 23 7 L 21 7" />
</svg>