<svg width="100%" height="70px" viewBox="0 0 14 19" xmlns="http://www.w3.org/2000/svg">
    <path 
    d="M 2 0 Q 0 0 0 2 L 0 17 Q 0 19 2 19 L 12 19 Q 14 19 14 17 L 14 2 
    Q 14 0 12 0 M 3 5 A 1 1 0 0 0 2 4 L 2 3 A 1 1 0 0 0 3 2 L 11 2 A 1 1 0 0 0 12 3 L 12 4 
    A 1 1 0 0 0 11 5 M 3 7 A 1 1 0 0 1 4 8 A 1 1 0 0 1 3 9 A 1 1 0 0 1 2 8 A 1 1 0 0 1 3 7 
    M 7 7 A 1 1 0 0 1 8 8 A 1 1 0 0 1 7 9 A 1 1 0 0 1 6 8 A 1 1 0 0 1 7 7 M 11 7 A 1 1 0 0 1 12 8 
    A 1 1 0 0 1 11 9 A 1 1 0 0 1 10 8 A 1 1 0 0 1 11 7 M 3 11 A 1 1 0 0 1 4 12 A 1 1 0 0 1 3 13 
    A 1 1 0 0 1 2 12 A 1 1 0 0 1 3 11 M 7 11 A 1 1 0 0 1 8 12 A 1 1 0 0 1 7 13 A 1 1 0 0 1 6 12 
    A 1 1 0 0 1 7 11 M 11 11 A 1 1 0 0 1 12 12 A 1 1 0 0 1 11 13 A 1 1 0 0 1 10 12 A 1 1 0 0 1 11 11 
    M 3 15 A 1 1 0 0 1 4 16 A 1 1 0 0 1 3 17 A 1 1 0 0 1 2 16 A 1 1 0 0 1 3 15 M 7 15 A 1 1 0 0 1 8 16 
    A 1 1 0 0 1 7 17 A 1 1 0 0 1 6 16 A 1 1 0 0 1 7 15 M 11 15 A 1 1 0 0 1 12 16 A 1 1 0 0 1 11 17 
    A 1 1 0 0 1 10 16 A 1 1 0 0 1 11 15" />
</svg>