<svg width="100%" height="70px" viewBox="0 0 25 25" xmlns="http://www.w3.org/2000/svg">
    <path
        d="M 1 0 A 1 1 0 0 0 0 1 L 0 24 A 1 1 0 0 0 1 25 A 1 1 0 0 0 2 24 L 2 6 
            A 1 1 0 0 1 3 5 A 1 1 0 0 1 4 6 L 4 24 A 1 1 0 0 0 5 25 A 1 1 0 0 0 6 24 L 6 6 A 1 1 0 0 1 7 5 
            A 1 1 0 0 1 8 6 L 8 24 A 1 1 0 0 0 9 25 A 1 1 0 0 0 10 24 L 10 1 A 1 1 0 0 0 9 0 M 16 0 A 1 1 0 0 0 15 1 
            L 15 23 Q 15 25 17 25 L 24 25 A 1 1 0 0 0 25 24 L 25 21 A 1 1 0 0 0 24 20 L 22 20 Q 20 20 20 18 L 20 1 A 1 1 0 0 0 19 0" />
</svg>